# xmcd
#
# Track frame offsets:
#	150
#	8607
#	19445
#	27660
#	32947
#	47857
#	61835
#	69800
#	82232
#	93747
#	110195
#
# Disc length: 1628 seconds
#
# Revision: 1
# Processed by: cddbd v1.5.1PL0 Copyright (c) Steve Scherf et al.
# Submitted via: audiograbber 1.83.01
#
DISCID=98065a0b
DTITLE=The Double U and Glands of External Secretion - S/T
DYEAR=1900
DGENRE=Viking Noise Gloop Pop
TTITLE0=The Double U - March to Valhalla
TTITLE1=The Double U - lIhG
TTITLE2=The Double U - The Sick Doll (Peter Tschaikowsky)
TTITLE3=The Double U - Youwgüll
TTITLE4=The Double U - Cuisine of Northern India
TTITLE5=The Double U - Emperor Jones
TTITLE6=The Double U - Mystic Rectangle
TTITLE7=The Double U - Green Light Go
TTITLE8=The Double U - Absurd Fjord (redux)
TTITLE9=The Double U - Bow Legged Horse
TTITLE10=The Double U - Lonely Woman (Ornette Coleman
EXTD=
EXTT0=
EXTT1=
EXTT2=
EXTT3=
EXTT4=a
EXTT5=
EXTT6=
EXTT7=
EXTT8=
EXTT9=
EXTT10=
PLAYORDER=
